<svg width="64" height="92" viewBox="0 0 64 92" fill="none" xmlns="http://www.w3.org/2000/svg">
<path d="M59.577 14.992L61.9533 16.8232L62.577 16.0138V14.992H59.577ZM42.809 36.752L40.4327 34.9208L37.7398 38.4154L41.9796 39.6351L42.809 36.752ZM57.657 46.224L55.3273 48.1141L55.338 48.1273L55.3488 48.1403L57.657 46.224ZM53.945 83.984L52.0213 81.6819L52.0056 81.6951L51.99 81.7085L53.945 83.984ZM12.473 86.928L10.9119 89.4898L10.9266 89.4988L10.9414 89.5076L12.473 86.928ZM0.569 72.848L-0.928894 70.2487L-3.19896 71.5569L-2.20826 73.9824L0.569 72.848ZM15.673 64.144L18.5396 63.2593L17.4312 59.6683L14.1751 61.5447L15.673 64.144ZM41.785 71.312L43.7438 73.5842L43.7498 73.5791L41.785 71.312ZM41.785 53.52L39.7824 55.7537L39.8011 55.7705L39.8202 55.7871L41.785 53.52ZM27.449 50.192L24.9481 51.8489L25.8379 53.192H27.449V50.192ZM20.665 39.952L18.2842 38.1267L16.9822 39.8249L18.1641 41.6089L20.665 39.952ZM38.329 16.912L40.7098 18.7373L44.4092 13.912H38.329V16.912ZM3.257 16.912H0.257V19.912H3.257V16.912ZM3.257 0.399994V-2.60001H0.257V0.399994H3.257ZM59.577 0.399994H62.577V-2.60001H59.577V0.399994ZM57.2007 13.1608L40.4327 34.9208L45.1853 38.5832L61.9533 16.8232L57.2007 13.1608ZM41.9796 39.6351C47.6886 41.2774 52.0879 44.1214 55.3273 48.1141L59.9867 44.3339C55.8874 39.2813 50.3881 35.8106 43.6384 33.8689L41.9796 39.6351ZM55.3488 48.1403C58.6283 52.0907 60.289 56.7774 60.289 62.352H66.289C66.289 55.4679 64.195 49.4027 59.9652 44.3077L55.3488 48.1403ZM60.289 62.352C60.289 70.8139 57.4714 77.1278 52.0213 81.6819L55.8687 86.2861C62.8773 80.4296 66.289 72.3221 66.289 62.352H60.289ZM51.99 81.7085C46.5475 86.3844 39.7182 88.792 31.289 88.792V94.792C40.9505 94.792 49.2251 91.9943 55.9 86.2595L51.99 81.7085ZM31.289 88.792C24.6817 88.792 18.9506 87.2851 14.0046 84.3484L10.9414 89.5076C16.918 93.0562 23.7309 94.792 31.289 94.792V88.792ZM14.0341 84.3662C9.13384 81.3801 5.58457 77.1936 3.34626 71.7136L-2.20826 73.9824C0.502766 80.6197 4.8895 85.8199 10.9119 89.4898L14.0341 84.3662ZM2.06689 75.4473L17.1709 66.7433L14.1751 61.5447L-0.928894 70.2487L2.06689 75.4473ZM12.8064 65.0287C14.0434 69.0364 16.2495 72.2495 19.5176 74.4193C22.7485 76.5644 26.7482 77.512 31.289 77.512V71.512C27.5524 71.512 24.8109 70.7316 22.8364 69.4207C20.8992 68.1345 19.436 66.1636 18.5396 63.2593L12.8064 65.0287ZM31.289 77.512C36.2552 77.512 40.5469 76.3402 43.7438 73.5842L39.8262 69.0398C38.0738 70.5505 35.3682 71.512 31.289 71.512V77.512ZM43.7498 73.5791C47.0432 70.7248 48.625 66.8709 48.625 62.352H42.625C42.625 65.3424 41.6468 67.4619 39.8202 69.0449L43.7498 73.5791ZM48.625 62.352C48.625 57.8944 47.0266 54.0929 43.7498 51.2529L39.8202 55.7871C41.6634 57.3845 42.625 59.471 42.625 62.352H48.625ZM43.7876 51.2863C40.5907 48.4201 36.2817 47.192 31.289 47.192V53.192C35.3416 53.192 38.03 54.1826 39.7824 55.7537L43.7876 51.2863ZM31.289 47.192H27.449V53.192H31.289V47.192ZM29.95 48.5351L23.166 38.2951L18.1641 41.6089L24.9481 51.8489L29.95 48.5351ZM23.0458 41.7773L40.7098 18.7373L35.9482 15.0867L18.2842 38.1267L23.0458 41.7773ZM38.329 13.912H3.257V19.912H38.329V13.912ZM6.257 16.912V0.399994H0.257V16.912H6.257ZM3.257 3.39999H59.577V-2.60001H3.257V3.39999ZM56.577 0.399994V14.992H62.577V0.399994H56.577Z" fill="url(#paint0_linear_6_164)"/>
<defs>
<linearGradient id="paint0_linear_6_164" x1="32.5" y1="-34" x2="32.5" y2="145" gradientUnits="userSpaceOnUse">
<stop stop-color="#5F4BD9"/>
<stop offset="1" stop-color="#676666" stop-opacity="0"/>
</linearGradient>
</defs>
</svg>
