<svg width="144" height="19" viewBox="0 0 144 19" fill="none" xmlns="http://www.w3.org/2000/svg">
<path d="M13.592 1.2H17V18H13.712V7.104L8.984 14.904H8.6L3.872 7.128V18H0.56V1.2H3.968L8.792 9.144L13.592 1.2ZM26.3943 18H20.1303V1.2H23.4423V6.72H26.3943C27.9943 6.72 29.3543 7.264 30.4743 8.352C31.5783 9.44 32.1303 10.776 32.1303 12.36C32.1303 13.944 31.5783 15.28 30.4743 16.368C29.3543 17.456 27.9943 18 26.3943 18ZM36.9543 18H33.6663V1.2H36.9543V18ZM23.4423 9.816V14.904H26.3943C27.0983 14.904 27.6823 14.664 28.1463 14.184C28.6103 13.704 28.8423 13.096 28.8423 12.36C28.8423 11.624 28.6103 11.016 28.1463 10.536C27.6823 10.056 27.0983 9.816 26.3943 9.816H23.4423Z" fill="#5F4BD9"/>
<path d="M46.7476 9.36L53.2036 18H49.3876L43.3876 10.128V18H40.0756V1.2H43.3876V8.616L49.1476 1.2H52.9636L46.7476 9.36ZM67.5476 15.816C65.8516 17.496 63.7876 18.336 61.3556 18.336C58.9236 18.336 56.8596 17.496 55.1636 15.816C53.4836 14.104 52.6436 12.032 52.6436 9.6C52.6436 7.152 53.4836 5.088 55.1636 3.408C56.8596 1.712 58.9236 0.863999 61.3556 0.863999C63.7876 0.863999 65.8516 1.712 67.5476 3.408C69.2436 5.088 70.0916 7.152 70.0916 9.6C70.0916 12.048 69.2436 14.12 67.5476 15.816ZM57.4916 13.56C58.5156 14.584 59.8036 15.096 61.3556 15.096C62.9076 15.096 64.1956 14.584 65.2196 13.56C66.2596 12.52 66.7796 11.2 66.7796 9.6C66.7796 8 66.2596 6.68 65.2196 5.64C64.1796 4.6 62.8916 4.08 61.3556 4.08C59.8196 4.08 58.5316 4.6 57.4916 5.64C56.4516 6.68 55.9316 8 55.9316 9.6C55.9316 11.2 56.4516 12.52 57.4916 13.56ZM80.3874 18.336C77.8754 18.336 75.7874 17.496 74.1234 15.816C72.4754 14.152 71.6514 12.08 71.6514 9.6C71.6514 7.104 72.4754 5.032 74.1234 3.384C75.7874 1.704 77.8754 0.863999 80.3874 0.863999C81.9074 0.863999 83.3074 1.224 84.5874 1.944C85.8834 2.648 86.8914 3.608 87.6114 4.824L84.7554 6.48C84.3394 5.728 83.7474 5.144 82.9794 4.728C82.2114 4.296 81.3474 4.08 80.3874 4.08C78.7554 4.08 77.4354 4.592 76.4274 5.616C75.4354 6.656 74.9394 7.984 74.9394 9.6C74.9394 11.2 75.4354 12.52 76.4274 13.56C77.4354 14.584 78.7554 15.096 80.3874 15.096C81.3474 15.096 82.2114 14.888 82.9794 14.472C83.7634 14.04 84.3554 13.456 84.7554 12.72L87.6114 14.376C86.8914 15.592 85.8834 16.56 84.5874 17.28C83.3074 17.984 81.9074 18.336 80.3874 18.336ZM102.678 1.2H106.086V18H102.798V7.104L98.0699 14.904H97.6859L92.9579 7.128V18H89.6459V1.2H93.0539L97.8779 9.144L102.678 1.2ZM123.352 15.816C121.656 17.496 119.592 18.336 117.16 18.336C114.728 18.336 112.664 17.496 110.968 15.816C109.288 14.104 108.448 12.032 108.448 9.6C108.448 7.152 109.288 5.088 110.968 3.408C112.664 1.712 114.728 0.863999 117.16 0.863999C119.592 0.863999 121.656 1.712 123.352 3.408C125.048 5.088 125.896 7.152 125.896 9.6C125.896 12.048 125.048 14.12 123.352 15.816ZM113.296 13.56C114.32 14.584 115.608 15.096 117.16 15.096C118.712 15.096 120 14.584 121.024 13.56C122.064 12.52 122.584 11.2 122.584 9.6C122.584 8 122.064 6.68 121.024 5.64C119.984 4.6 118.696 4.08 117.16 4.08C115.624 4.08 114.336 4.6 113.296 5.64C112.256 6.68 111.736 8 111.736 9.6C111.736 11.2 112.256 12.52 113.296 13.56ZM136.192 18.336C133.68 18.336 131.592 17.496 129.928 15.816C128.28 14.152 127.456 12.08 127.456 9.6C127.456 7.104 128.28 5.032 129.928 3.384C131.592 1.704 133.68 0.863999 136.192 0.863999C137.712 0.863999 139.112 1.224 140.392 1.944C141.688 2.648 142.696 3.608 143.416 4.824L140.56 6.48C140.144 5.728 139.552 5.144 138.784 4.728C138.016 4.296 137.152 4.08 136.192 4.08C134.56 4.08 133.24 4.592 132.232 5.616C131.24 6.656 130.744 7.984 130.744 9.6C130.744 11.2 131.24 12.52 132.232 13.56C133.24 14.584 134.56 15.096 136.192 15.096C137.152 15.096 138.016 14.888 138.784 14.472C139.568 14.04 140.16 13.456 140.56 12.72L143.416 14.376C142.696 15.592 141.688 16.56 140.392 17.28C139.112 17.984 137.712 18.336 136.192 18.336Z" fill="white"/>
</svg>
