<svg width="18" height="18" viewBox="0 0 18 18" fill="none" xmlns="http://www.w3.org/2000/svg">
<path d="M5.4 16.5H7.35C9.75 16.5 11.25 15 11.25 12.6V9.5625H6.5625C6.255 9.5625 6 9.3075 6 9C6 8.6925 6.255 8.4375 6.5625 8.4375H11.25L11.25 5.4C11.25 3 9.75 1.5 7.35 1.5H5.4075C3.0075 1.5 1.5075 3 1.5075 5.4L1.5075 12.6C1.5 15 3 16.5 5.4 16.5Z" fill="#676666"/>
<path d="M14.5799 9.56249L13.0274 11.115C12.9149 11.2275 12.8624 11.37 12.8624 11.5125C12.8624 11.655 12.9149 11.805 13.0274 11.91C13.2449 12.1275 13.6049 12.1275 13.8224 11.91L16.3349 9.39749C16.5524 9.17999 16.5524 8.82 16.3349 8.6025L13.8224 6.08999C13.6049 5.87249 13.2449 5.87249 13.0274 6.08999C12.8099 6.30749 12.8099 6.6675 13.0274 6.88499L14.5799 8.43749H11.2499V9.56249H14.5799Z" fill="#676666"/>
</svg>
