<svg width="40" height="90" viewBox="0 0 40 90" fill="none" xmlns="http://www.w3.org/2000/svg">
<path d="M0.158001 8.71999L-0.841263 5.89131L-3.50769 6.83325L-2.72472 9.55061L0.158001 8.71999ZM23.71 0.399994V-2.60001H23.1957L22.7107 -2.42869L23.71 0.399994ZM39.07 0.399994H42.07V-2.60001H39.07V0.399994ZM39.07 90V93H42.07V90H39.07ZM21.406 90H18.406V93H21.406V90ZM21.406 19.088H24.406V15.1315L20.5963 16.1993L21.406 19.088ZM4.51 23.824L1.62728 24.6546L2.4519 27.5165L5.3197 26.7127L4.51 23.824ZM1.15726 11.5487L24.7093 3.22868L22.7107 -2.42869L-0.841263 5.89131L1.15726 11.5487ZM23.71 3.39999H39.07V-2.60001H23.71V3.39999ZM36.07 0.399994V90H42.07V0.399994H36.07ZM39.07 87H21.406V93H39.07V87ZM24.406 90V19.088H18.406V90H24.406ZM20.5963 16.1993L3.7003 20.9353L5.3197 26.7127L22.2157 21.9767L20.5963 16.1993ZM7.39272 22.9934L3.04072 7.88938L-2.72472 9.55061L1.62728 24.6546L7.39272 22.9934Z" fill="url(#paint0_linear_6_152)"/>
<defs>
<linearGradient id="paint0_linear_6_152" x1="23.5" y1="-34" x2="23.5" y2="145" gradientUnits="userSpaceOnUse">
<stop stop-color="#5F4BD9"/>
<stop offset="1" stop-color="#676666" stop-opacity="0"/>
</linearGradient>
</defs>
</svg>
