<svg width="61" height="92" viewBox="0 0 61 92" fill="none" xmlns="http://www.w3.org/2000/svg">
<path d="M60.86 92V95H63.86V92H60.86ZM0.956001 92H-2.044V95H0.956001V92ZM0.956001 78.816L-1.19571 76.7255L-2.044 77.5986V78.816H0.956001ZM31.548 47.328L33.6997 49.4185L33.7163 49.4014L33.7326 49.3841L31.548 47.328ZM38.46 20.96L36.3387 23.0813L36.3595 23.1021L36.3807 23.1225L38.46 20.96ZM15.164 28.256L13.6468 30.8441L16.5259 32.5318L17.8985 29.4899L15.164 28.256ZM0.316002 19.552L-2.41904 18.3193L-3.52667 20.7769L-1.20116 22.1401L0.316002 19.552ZM12.22 5.6L13.8063 8.14636L13.8174 8.13938L12.22 5.6ZM50.748 8.28799L48.7631 10.5375L48.7725 10.5458L48.7819 10.554L50.748 8.28799ZM27.196 74.976L25.0747 72.8547L19.9534 77.976H27.196V74.976ZM60.86 74.976H63.86V71.976H60.86V74.976ZM60.86 89H0.956001V95H60.86V89ZM3.956 92V78.816H-2.044V92H3.956ZM3.10771 80.9065L33.6997 49.4185L29.3963 45.2375L-1.19571 76.7255L3.10771 80.9065ZM33.7326 49.3841C37.2425 45.6548 39.9695 42.1571 41.8327 38.8964C43.6858 35.6535 44.788 32.4646 44.788 29.408H38.788C38.788 31.0448 38.1835 33.1891 36.6233 35.9196C35.0732 38.6323 32.6802 41.7479 29.3634 45.2719L33.7326 49.3841ZM44.788 29.408C44.788 25.2154 43.4288 21.5759 40.5393 18.7975L36.3807 23.1225C37.9285 24.6108 38.788 26.6032 38.788 29.408H44.788ZM40.5813 18.8387C37.8097 16.067 34.2351 14.76 30.14 14.76V20.76C32.8716 20.76 34.8437 21.5863 36.3387 23.0813L40.5813 18.8387ZM30.14 14.76C26.1875 14.76 22.6143 15.7826 19.5542 17.9273C16.5161 20.0565 14.173 23.1581 12.4295 27.0221L17.8985 29.4899C19.3123 26.3565 21.0439 24.2101 22.9978 22.8407C24.9297 21.4867 27.2658 20.76 30.14 20.76V14.76ZM16.6812 25.6679L1.83316 16.9639L-1.20116 22.1401L13.6468 30.8441L16.6812 25.6679ZM3.05104 20.7847C5.55879 15.2206 9.14798 11.0482 13.8062 8.14634L10.6338 3.05366C4.88136 6.63712 0.534546 11.766 -2.41904 18.3193L3.05104 20.7847ZM13.8174 8.13938C18.611 5.12401 23.9415 3.60799 29.884 3.60799V-2.39201C22.8558 -2.39201 16.4103 -0.580019 10.6226 3.06062L13.8174 8.13938ZM29.884 3.60799C37.2977 3.60799 43.5364 5.92569 48.7631 10.5375L52.7329 6.03848C46.3543 0.410301 38.6836 -2.39201 29.884 -2.39201V3.60799ZM48.7819 10.554C53.8434 14.9455 56.452 20.9003 56.452 28.768H62.452C62.452 19.3984 59.258 11.6998 52.7141 6.02203L48.7819 10.554ZM56.452 28.768C56.452 36.9555 52.1356 45.7938 42.6107 55.3187L46.8533 59.5613C56.9551 49.4595 62.452 39.1831 62.452 28.768H56.452ZM42.6107 55.3187L25.0747 72.8547L29.3173 77.0973L46.8533 59.5613L42.6107 55.3187ZM27.196 77.976H60.86V71.976H27.196V77.976ZM57.86 74.976V92H63.86V74.976H57.86Z" fill="url(#paint0_linear_6_158)"/>
<defs>
<linearGradient id="paint0_linear_6_158" x1="31.5" y1="-32" x2="31.5" y2="147" gradientUnits="userSpaceOnUse">
<stop stop-color="#5F4BD9"/>
<stop offset="1" stop-color="#676666" stop-opacity="0"/>
</linearGradient>
</defs>
</svg>
