<svg width="18" height="16" viewBox="0 0 18 16" fill="none" xmlns="http://www.w3.org/2000/svg">
<path d="M13.166 0.916687H4.83268C2.33268 0.916687 0.666016 2.16669 0.666016 5.08335V10.9167C0.666016 13.8334 2.33268 15.0834 4.83268 15.0834H13.166C15.666 15.0834 17.3327 13.8334 17.3327 10.9167V5.08335C17.3327 2.16669 15.666 0.916687 13.166 0.916687ZM13.5577 5.99169L10.9493 8.07502C10.3993 8.51669 9.69935 8.73335 8.99935 8.73335C8.29935 8.73335 7.59102 8.51669 7.04935 8.07502L4.44102 5.99169C4.17435 5.77502 4.13268 5.37502 4.34102 5.10835C4.55768 4.84169 4.94935 4.79169 5.21602 5.00835L7.82435 7.09169C8.45768 7.60002 9.53268 7.60002 10.166 7.09169L12.7743 5.00835C13.041 4.79169 13.441 4.83335 13.6493 5.10835C13.866 5.37502 13.8243 5.77502 13.5577 5.99169Z" fill="#676666"/>
</svg>
