<svg width="18" height="18" viewBox="0 0 18 18" fill="none" xmlns="http://www.w3.org/2000/svg">
<path d="M6.75 1.5C4.785 1.5 3.1875 3.0975 3.1875 5.0625C3.1875 6.99 4.695 8.55 6.66 8.6175C6.72 8.61 6.78 8.61 6.825 8.6175C6.84 8.6175 6.8475 8.6175 6.8625 8.6175C6.87 8.6175 6.87 8.6175 6.8775 8.6175C8.7975 8.55 10.305 6.99 10.3125 5.0625C10.3125 3.0975 8.715 1.5 6.75 1.5Z" fill="#676666"/>
<path d="M10.5607 10.6125C8.4682 9.21753 5.0557 9.21753 2.9482 10.6125C1.9957 11.25 1.4707 12.1125 1.4707 13.035C1.4707 13.9575 1.9957 14.8125 2.9407 15.4425C3.9907 16.1475 5.3707 16.5 6.7507 16.5C8.1307 16.5 9.5107 16.1475 10.5607 15.4425C11.5057 14.805 12.0307 13.95 12.0307 13.02C12.0232 12.0975 11.5057 11.2425 10.5607 10.6125Z" fill="#676666"/>
<path d="M14.992 5.50495C15.112 6.95995 14.077 8.23495 12.6445 8.40745C12.637 8.40745 12.637 8.40745 12.6295 8.40745H12.607C12.562 8.40745 12.517 8.40745 12.4795 8.42245C11.752 8.45995 11.0845 8.22745 10.582 7.79995C11.3545 7.10995 11.797 6.07495 11.707 4.94995C11.6545 4.34245 11.4445 3.78745 11.1295 3.31495C11.4145 3.17245 11.7445 3.08245 12.082 3.05245C13.552 2.92495 14.8645 4.01995 14.992 5.50495Z" fill="#676666"/>
<path d="M16.4922 12.4426C16.4322 13.1701 15.9672 13.8001 15.1872 14.2276C14.4372 14.6401 13.4922 14.8351 12.5547 14.8126C13.0947 14.3251 13.4097 13.7176 13.4697 13.0726C13.5447 12.1426 13.1022 11.2501 12.2172 10.5376C11.7147 10.1401 11.1297 9.82505 10.4922 9.59255C12.1497 9.11255 14.2347 9.43505 15.5172 10.4701C16.2072 11.0251 16.5597 11.7226 16.4922 12.4426Z" fill="#676666"/>
</svg>
