<svg width="25" height="24" viewBox="0 0 25 24" fill="none" xmlns="http://www.w3.org/2000/svg">
<rect x="0.400391" width="24" height="24" rx="12" fill="#676666" fill-opacity="0.16"/>
<path d="M5.79407 11.7355C9.28373 10.1831 11.6107 9.15973 12.775 8.66527C16.0994 7.2535 16.7901 7.00826 17.2404 7.00008C17.3394 6.99838 17.5608 7.02344 17.7042 7.14226C17.8253 7.2426 17.8587 7.37813 17.8746 7.47325C17.8905 7.56838 17.9104 7.78508 17.8946 7.9544C17.7145 9.88701 16.935 14.5769 16.5384 16.7415C16.3706 17.6574 16.0402 17.9645 15.7203 17.9945C15.0252 18.0599 14.4973 17.5255 13.824 17.0749C12.7705 16.3697 12.1753 15.9308 11.1526 15.2427C9.97074 14.4475 10.7369 14.0104 11.4104 13.2962C11.5867 13.1092 14.6496 10.2648 14.7088 10.0067C14.7162 9.97446 14.7231 9.85417 14.6531 9.79065C14.5831 9.72713 14.4798 9.74885 14.4053 9.76612C14.2996 9.79061 12.6165 10.9264 9.35605 13.1736C8.87832 13.5086 8.4456 13.6718 8.05789 13.6632C7.63049 13.6538 6.80832 13.4165 6.19713 13.2136C5.44747 12.9648 4.85166 12.8333 4.90354 12.4107C4.93056 12.1906 5.22741 11.9656 5.79407 11.7355Z" fill="#676666"/>
</svg>
