<svg width="25" height="24" viewBox="0 0 25 24" fill="none" xmlns="http://www.w3.org/2000/svg">
<rect x="0.199219" width="24" height="24" rx="12" fill="#676666" fill-opacity="0.16"/>
<path fill-rule="evenodd" clip-rule="evenodd" d="M19.8321 8.2673C19.9434 7.89647 19.8321 7.6239 19.3027 7.6239H17.5523C17.1072 7.6239 16.9022 7.85933 16.7909 8.11902C16.7909 8.11902 15.9007 10.2886 14.6397 11.698C14.2317 12.1059 14.0463 12.2356 13.8237 12.2356C13.7124 12.2356 13.5514 12.1059 13.5514 11.7351V8.2673C13.5514 7.8222 13.4222 7.6239 13.0513 7.6239H10.3006C10.0226 7.6239 9.85529 7.83045 9.85529 8.02625C9.85529 8.44822 10.4857 8.54549 10.5507 9.73227V12.31C10.5507 12.8751 10.4487 12.9777 10.2261 12.9777C9.63274 12.9777 8.1894 10.7981 7.3332 8.30444C7.16541 7.8197 6.99712 7.6239 6.54977 7.6239H4.79936C4.29924 7.6239 4.19922 7.85933 4.19922 8.11902C4.19922 8.58263 4.79273 10.8822 6.96236 13.9234C8.40895 16.0001 10.4467 17.1261 12.3011 17.1261C13.4139 17.1261 13.5514 16.8761 13.5514 16.4453V14.8756C13.5514 14.3755 13.6568 14.2757 14.009 14.2757C14.2688 14.2757 14.7138 14.4055 15.7524 15.4068C16.9392 16.5935 17.1347 17.1261 17.8024 17.1261H19.5528C20.0529 17.1261 20.303 16.8761 20.1587 16.3826C20.0009 15.8907 19.4343 15.1773 18.6824 14.3313C18.2744 13.8491 17.6624 13.3299 17.4771 13.0703C17.2174 12.7365 17.2915 12.5882 17.4771 12.2916C17.4771 12.2916 19.6096 9.28742 19.8321 8.26743V8.2673Z" fill="#676666"/>
</svg>
