<svg width="286" height="36" viewBox="0 0 286 36" fill="none" xmlns="http://www.w3.org/2000/svg">
<path d="M26.184 1.4H33V35H26.424V13.208L16.968 28.808H16.2L6.744 13.256V35H0.12V1.4H6.936L16.584 17.288L26.184 1.4ZM51.7886 35H39.2606V1.4H45.8846V12.44H51.7886C54.9886 12.44 57.7086 13.528 59.9486 15.704C62.1566 17.88 63.2606 20.552 63.2606 23.72C63.2606 26.888 62.1566 29.56 59.9486 31.736C57.7086 33.912 54.9886 35 51.7886 35ZM72.9086 35H66.3326V1.4H72.9086V35ZM45.8846 18.632V28.808H51.7886C53.1966 28.808 54.3646 28.328 55.2926 27.368C56.2206 26.408 56.6846 25.192 56.6846 23.72C56.6846 22.248 56.2206 21.032 55.2926 20.072C54.3646 19.112 53.1966 18.632 51.7886 18.632H45.8846Z" fill="#5F4BD9"/>
<path d="M92.4953 17.72L105.407 35H97.7753L85.7753 19.256V35H79.1513V1.4H85.7753V16.232L97.2953 1.4H104.927L92.4953 17.72ZM134.095 30.632C130.703 33.992 126.575 35.672 121.711 35.672C116.847 35.672 112.719 33.992 109.327 30.632C105.967 27.208 104.287 23.064 104.287 18.2C104.287 13.304 105.967 9.176 109.327 5.816C112.719 2.424 116.847 0.727998 121.711 0.727998C126.575 0.727998 130.703 2.424 134.095 5.816C137.487 9.176 139.183 13.304 139.183 18.2C139.183 23.096 137.487 27.24 134.095 30.632ZM113.983 26.12C116.031 28.168 118.607 29.192 121.711 29.192C124.815 29.192 127.391 28.168 129.439 26.12C131.519 24.04 132.559 21.4 132.559 18.2C132.559 15 131.519 12.36 129.439 10.28C127.359 8.2 124.783 7.16 121.711 7.16C118.639 7.16 116.063 8.2 113.983 10.28C111.903 12.36 110.863 15 110.863 18.2C110.863 21.4 111.903 24.04 113.983 26.12ZM159.775 35.672C154.751 35.672 150.575 33.992 147.247 30.632C143.951 27.304 142.303 23.16 142.303 18.2C142.303 13.208 143.951 9.064 147.247 5.768C150.575 2.408 154.751 0.727998 159.775 0.727998C162.815 0.727998 165.615 1.448 168.175 2.888C170.767 4.296 172.783 6.216 174.223 8.648L168.511 11.96C167.679 10.456 166.495 9.288 164.959 8.456C163.423 7.592 161.695 7.16 159.775 7.16C156.511 7.16 153.871 8.184 151.855 10.232C149.871 12.312 148.879 14.968 148.879 18.2C148.879 21.4 149.871 24.04 151.855 26.12C153.871 28.168 156.511 29.192 159.775 29.192C161.695 29.192 163.423 28.776 164.959 27.944C166.527 27.08 167.711 25.912 168.511 24.44L174.223 27.752C172.783 30.184 170.767 32.12 168.175 33.56C165.615 34.968 162.815 35.672 159.775 35.672ZM204.356 1.4H211.172V35H204.596V13.208L195.14 28.808H194.372L184.916 13.256V35H178.292V1.4H185.108L194.756 17.288L204.356 1.4ZM245.705 30.632C242.313 33.992 238.185 35.672 233.321 35.672C228.457 35.672 224.329 33.992 220.937 30.632C217.577 27.208 215.896 23.064 215.896 18.2C215.896 13.304 217.577 9.176 220.937 5.816C224.329 2.424 228.457 0.727998 233.321 0.727998C238.185 0.727998 242.313 2.424 245.705 5.816C249.097 9.176 250.793 13.304 250.793 18.2C250.793 23.096 249.097 27.24 245.705 30.632ZM225.593 26.12C227.641 28.168 230.217 29.192 233.321 29.192C236.425 29.192 239.001 28.168 241.049 26.12C243.129 24.04 244.169 21.4 244.169 18.2C244.169 15 243.129 12.36 241.049 10.28C238.969 8.2 236.393 7.16 233.321 7.16C230.249 7.16 227.673 8.2 225.593 10.28C223.513 12.36 222.473 15 222.473 18.2C222.473 21.4 223.513 24.04 225.593 26.12ZM271.384 35.672C266.36 35.672 262.184 33.992 258.856 30.632C255.56 27.304 253.912 23.16 253.912 18.2C253.912 13.208 255.56 9.064 258.856 5.768C262.184 2.408 266.36 0.727998 271.384 0.727998C274.424 0.727998 277.224 1.448 279.784 2.888C282.376 4.296 284.392 6.216 285.832 8.648L280.12 11.96C279.288 10.456 278.104 9.288 276.568 8.456C275.032 7.592 273.304 7.16 271.384 7.16C268.12 7.16 265.48 8.184 263.464 10.232C261.48 12.312 260.488 14.968 260.488 18.2C260.488 21.4 261.48 24.04 263.464 26.12C265.48 28.168 268.12 29.192 271.384 29.192C273.304 29.192 275.032 28.776 276.568 27.944C278.136 27.08 279.32 25.912 280.12 24.44L285.832 27.752C284.392 30.184 282.376 32.12 279.784 33.56C277.224 34.968 274.424 35.672 271.384 35.672Z" fill="white"/>
</svg>
